<?xml version="1.0" encoding="UTF-8" standalone="no"?>
<!-- Created with Inkscape (http://www.inkscape.org/) -->

<svg
   xmlns:dc="http://purl.org/dc/elements/1.1/"
   xmlns:cc="http://creativecommons.org/ns#"
   xmlns:rdf="http://www.w3.org/1999/02/22-rdf-syntax-ns#"
   xmlns:svg="http://www.w3.org/2000/svg"
   xmlns="http://www.w3.org/2000/svg"
   version="1.1"
   width="53"
   height="2661"
   id="svg2">
  <metadata
     id="metadata8">
    <rdf:RDF>
      <cc:Work
         rdf:about="">
        <dc:format>image/svg+xml</dc:format>
        <dc:type
           rdf:resource="http://purl.org/dc/dcmitype/StillImage" />
        <dc:title></dc:title>
      </cc:Work>
    </rdf:RDF>
  </metadata>
  <defs
     id="defs6" />
  <path
     d="m 6,2648.6962 c 0,-0.7171 1.6308688,-2.8546 3.624153,-4.75 C 15.968417,2637.9135 19,2633.0506 19,2628.9067 c 0,-6.4462 -6.12178,-8.5555 -10.2277642,-3.5239 l -1.7277641,2.1172 -0.022236,-2.5895 C 6.996272,2621.8869 10.229393,2620 15.436269,2620 c 4.77922,0 7.763731,2.7559 7.763731,7.1691 0,4.4501 -0.920869,6.19 -7.39074,13.9644 l -5.149279,6.1875 6.67001,-0.6229 C 23.502303,2646.1217 24,2646.2217 24,2648.0376 c 0,1.8045 -0.724187,1.9624 -9,1.9624 -6.7315178,0 -9,-0.3286 -9,-1.3038 z m 24.454545,-1.1507 c -3.263279,-3.2633 -3.094419,-5.7471 0.683213,-10.0496 l 3.137757,-3.5737 -2.022822,-2.2111 c -3.44186,-3.7622 -3.685752,-6.3689 -0.860251,-9.1945 3.431312,-3.4313 10.738147,-3.5959 13.050854,-0.2941 2.123057,3.0311 1.975342,4.1265 -1.03961,7.7096 l -2.596315,3.0855 3.096315,2.8924 c 6.299786,5.8849 2.570693,14.09 -6.403686,14.09 -3.540965,0 -5.152265,-0.5614 -7.045455,-2.4545 z m 10.322949,-0.1022 c 3.360734,-2.354 2.934571,-6.6663 -0.984688,-9.9642 l -3.207194,-2.6987 -2.292806,2.6656 c -2.966641,3.4489 -2.998267,7.9465 -0.0703,9.9973 1.222379,0.8562 2.697251,1.5567 3.277494,1.5567 0.580243,0 2.055115,-0.7005 3.277494,-1.5567 z M 42,2625.5117 c 0,-5.2423 -7.351268,-5.9446 -8.636191,-0.8251 -0.536676,2.1383 -0.111828,3.1334 2.179069,5.1039 l 2.845719,2.4478 1.805702,-2.2299 C 41.187434,2628.7819 42,2626.7584 42,2625.5117 z m -9,-72.714 c 0,-0.716 2.25,-6.611 5,-13.1001 2.75,-6.4891 5,-12.0007 5,-12.248 0,-0.2473 -3.15,-0.4496 -7,-0.4496 -6.333333,0 -7,-0.1905 -7,-2 0,-1.8536 0.666667,-2 9.106989,-2 8.285129,0 9.04102,0.1579 8.375996,1.75 -0.402045,0.9625 -2.875105,7.5541 -5.495687,14.648 -2.620583,7.0938 -5.489781,13.3037 -6.375997,13.7997 C 33.492974,2553.8235 33,2553.7011 33,2552.7977 z m -27,-1.1015 c 0,-0.7171 1.6308688,-2.8546 3.624153,-4.75 C 15.968417,2540.9135 19,2536.0506 19,2531.9067 c 0,-6.4462 -6.12178,-8.5555 -10.2277642,-3.5239 l -1.7277641,2.1172 -0.022236,-2.5895 C 6.996272,2524.8869 10.229393,2523 15.436269,2523 c 4.77922,0 7.763731,2.7559 7.763731,7.1691 0,4.4501 -0.920869,6.19 -7.39074,13.9644 l -5.149279,6.1875 6.67001,-0.6229 C 23.502303,2549.1217 24,2549.2217 24,2551.0376 c 0,1.8045 -0.724187,1.9624 -9,1.9624 -6.7315178,0 -9,-0.3286 -9,-1.3038 z m 0,-97 c 0,-0.7171 1.6308688,-2.8546 3.624153,-4.75 C 15.968417,2443.9135 19,2439.0506 19,2434.9067 c 0,-6.4462 -6.12178,-8.5555 -10.2277642,-3.5239 l -1.7277641,2.1172 -0.022236,-2.5895 C 6.996272,2427.8869 10.229393,2426 15.436269,2426 c 4.77922,0 7.763731,2.7559 7.763731,7.1691 0,4.4501 -0.920869,6.19 -7.39074,13.9644 l -5.149279,6.1875 6.67001,-0.6229 C 23.502303,2452.1217 24,2452.2217 24,2454.0376 c 0,1.8045 -0.724187,1.9624 -9,1.9624 -6.7315178,0 -9,-0.3286 -9,-1.3038 z m 25.578491,-1.206 c -4.183016,-4.5136 -4.085357,-14.6289 0.197075,-20.4128 2.885153,-3.8967 8.149677,-7.0826 11.622317,-7.0335 3.075459,0.043 3.067743,0.056 -0.897883,1.4849 -2.2,0.7926 -4.096277,1.4479 -4.213949,1.4561 -0.853177,0.06 -5.286051,7.8443 -5.286051,9.2824 0,1.5233 0.326724,1.6282 2.105297,0.6763 2.919872,-1.5626 8.525592,-0.3087 10.365961,2.3188 2.387069,3.408 1.976806,9.968 -0.785709,12.5633 -3.380162,3.1755 -10.010465,3.0058 -13.107058,-0.3355 z m 9.85008,-0.062 C 44.928353,2449.9288 42.302809,2440 37.877555,2440 c -3.009758,0 -5.878275,1.8491 -5.871978,3.7852 0.01342,4.1264 2.225132,9.3681 4.306684,10.2067 3.064755,1.2346 3.349711,1.2033 5.11631,-0.5633 z M 6,2357.6962 c 0,-0.7171 1.6308688,-2.8546 3.624153,-4.75 C 15.968417,2346.9135 19,2342.0506 19,2337.9067 c 0,-6.4462 -6.12178,-8.5555 -10.2277642,-3.5239 l -1.7277641,2.1172 -0.022236,-2.5895 C 6.996272,2330.8869 10.229393,2329 15.436269,2329 c 4.77922,0 7.763731,2.7559 7.763731,7.1691 0,4.4501 -0.920869,6.19 -7.39074,13.9644 l -5.149279,6.1875 6.67001,-0.6229 C 23.502303,2355.1217 24,2355.2217 24,2357.0376 c 0,1.8045 -0.724187,1.9624 -9,1.9624 -6.7315178,0 -9,-0.3286 -9,-1.3038 z m 24.454309,0.018 c -1.156224,-0.6865 -1.885243,-1.9755 -1.676676,-2.9646 0.483787,-2.2943 1.451909,-2.2133 2.990294,0.25 0.793333,1.2703 2.332028,2 4.217494,2 4.07508,0 6.483008,-3.726 5.665112,-8.7661 -0.794054,-4.8932 -3.088369,-6.5386 -8.043939,-5.769 l -3.893407,0.6046 0.634714,-5.2848 c 0.349093,-2.9066 0.638626,-6.0722 0.643407,-7.0347 0.0074,-1.4992 1.012003,-1.75 7.008692,-1.75 5.555556,0 7,0.3095 7,1.5 0,1.1631 -1.319444,1.5 -5.875,1.5 -5.78,0 -5.885106,0.05 -6.5,3.125 -1.020353,5.1018 -0.826685,5.6362 1.856524,5.1233 9.489887,-1.8141 15.204619,8.2175 8.929582,15.675 -2.141275,2.5447 -3.308346,3.0706 -6.75,3.0413 -2.288608,-0.019 -5.081667,-0.582 -6.206797,-1.25 z M 6,2260.6962 c 0,-0.7171 1.6308688,-2.8546 3.624153,-4.75 C 15.968417,2249.9135 19,2245.0506 19,2240.9067 c 0,-6.4462 -6.12178,-8.5555 -10.2277642,-3.5239 l -1.7277641,2.1172 -0.022236,-2.5895 C 6.996272,2233.8869 10.229393,2232 15.436269,2232 c 4.77922,0 7.763731,2.7559 7.763731,7.1691 0,4.4501 -0.920869,6.19 -7.39074,13.9644 l -5.149279,6.1875 6.67001,-0.6229 C 23.502303,2258.1217 24,2258.2217 24,2260.0376 c 0,1.8045 -0.724187,1.9624 -9,1.9624 -6.7315178,0 -9,-0.3286 -9,-1.3038 z m 34,-2.076 0,-3.3798 -5.978954,-0.4325 c -3.288425,-0.2379 -6.279583,-0.7331 -6.647017,-1.1005 -1.140102,-1.1401 12.940527,-21.6702 14.875971,-21.6897 1.551178,-0.016 1.75,1.1184 1.75,9.9823 0,9.3333 0.133333,10 2,10 2.594736,0 2.594736,2.0317 0,2.7103 -1.50286,0.393 -2,1.364 -2,3.9063 0,2.7167 -0.394085,3.3834 -2,3.3834 -1.6055,0 -2,-0.6667 -2,-3.3798 z M 40,2245 c 0,-3.85 -0.158978,-7 -0.353284,-7 -0.194306,0 -2.447893,3.15 -5.00797,7 l -4.654686,7 5.00797,0 5.00797,0 0,-7 z M 6,2163.6962 c 0,-0.7171 1.6308688,-2.8546 3.624153,-4.75 C 15.968417,2152.9135 19,2148.0506 19,2143.9067 c 0,-6.4462 -6.12178,-8.5555 -10.2277642,-3.5239 l -1.7277641,2.1172 -0.022236,-2.5895 C 6.996272,2136.8869 10.229393,2135 15.436269,2135 c 4.77922,0 7.763731,2.7559 7.763731,7.1691 0,4.4501 -0.920869,6.19 -7.39074,13.9644 l -5.149279,6.1875 6.67001,-0.6229 C 23.502303,2161.1217 24,2161.2217 24,2163.0376 c 0,1.8045 -0.724187,1.9624 -9,1.9624 -6.7315178,0 -9,-0.3286 -9,-1.3038 z m 24.105192,-0.07 c -0.626834,-0.7552 -0.86129,-2.0987 -0.521013,-2.9855 0.537905,-1.4017 0.841827,-1.3367 2.327681,0.4983 C 35.502601,2165.5739 43,2162.3619 43,2156.3892 43,2153.2772 39.665957,2150 36.5,2150 c -1.375,0 -2.5,-0.45 -2.5,-1 0,-0.55 1.099483,-1 2.443296,-1 4.856769,0 7.41917,-7.5821 3.492012,-10.3328 -2.573141,-1.8023 -5.646613,-1.0751 -7.124018,1.6854 -1.104309,2.0634 -1.138356,2.0658 -1.818798,0.126 -0.98151,-2.7981 1.590938,-4.4086 7.10252,-4.4468 7.65378,-0.053 10.662138,6.302 5.450443,11.5137 -1.35,1.35 -2.109853,2.4545 -1.688562,2.4545 0.421291,0 1.750837,0.9175 2.954546,2.039 3.163328,2.947 2.864414,7.439 -0.734516,11.0379 -2.44412,2.4441 -3.734886,2.9231 -7.877555,2.9231 -2.980791,0 -5.408494,-0.5471 -6.094176,-1.3733 z M 7,2066.6962 c 0,-0.7171 1.6308688,-2.8546 3.624153,-4.75 C 16.968417,2055.9135 20,2051.0506 20,2046.9067 c 0,-6.4462 -6.12178,-8.5555 -10.2277642,-3.5239 l -1.7277641,2.1172 -0.022236,-2.5895 C 7.996272,2039.8869 11.229393,2038 16.436269,2038 c 4.77922,0 7.763731,2.7559 7.763731,7.1691 0,4.4501 -0.920869,6.19 -7.39074,13.9644 l -5.149279,6.1875 6.67001,-0.6229 C 24.502303,2064.1217 25,2064.2217 25,2066.0376 c 0,1.8045 -0.724187,1.9624 -9,1.9624 -6.7315178,0 -9,-0.3286 -9,-1.3038 z m 22,0 c 0,-0.7171 1.630869,-2.8546 3.624153,-4.75 C 38.968417,2055.9135 42,2051.0506 42,2046.9067 c 0,-6.4462 -6.12178,-8.5555 -10.227764,-3.5239 l -1.727764,2.1172 -0.02224,-2.5895 c -0.02596,-3.0236 3.207157,-4.9105 8.414033,-4.9105 4.77922,0 7.763731,2.7559 7.763731,7.1691 0,4.4501 -0.920869,6.19 -7.39074,13.9644 l -5.149279,6.1875 6.67001,-0.6229 C 46.502303,2064.1217 47,2064.2217 47,2066.0376 c 0,1.8045 -0.724187,1.9624 -9,1.9624 -6.731518,0 -9,-0.3286 -9,-1.3038 z m -23,-96 c 0,-0.7171 1.6308688,-2.8546 3.624153,-4.75 C 15.968417,1959.9135 19,1955.0506 19,1950.9067 c 0,-6.4462 -6.12178,-8.5555 -10.2277642,-3.5239 l -1.7277641,2.1172 -0.022236,-2.5895 C 6.996272,1943.8869 10.229393,1942 15.436269,1942 c 4.77922,0 7.763731,2.7559 7.763731,7.1691 0,4.4501 -0.920869,6.19 -7.39074,13.9644 l -5.149279,6.1875 6.67001,-0.6229 C 23.502303,1968.1217 24,1968.2217 24,1970.0376 c 0,1.8045 -0.724187,1.9624 -9,1.9624 -6.7315178,0 -9,-0.3286 -9,-1.3038 z m 32,-11.6712 0,-12.975 -3,0.6 c -4.702244,0.9404 -3.511697,-1.0715 1.75,-2.9574 2.6125,-0.9364 4.975,-1.6993 5.25,-1.6955 0.275,0 0.5,6.7564 0.5,15.0058 0,14.8878 -0.01664,14.9987 -2.25,14.9979 C 38.032316,1972 38,1971.8136 38,1959.025 z M 6,1873.6962 c 0,-0.7171 1.6308688,-2.8546 3.624153,-4.75 C 15.968417,1862.9135 19,1858.0506 19,1853.9067 c 0,-6.4462 -6.12178,-8.5555 -10.2277642,-3.5239 l -1.7277641,2.1172 -0.022236,-2.5895 C 6.996272,1846.8869 10.229393,1845 15.436269,1845 c 4.77922,0 7.763731,2.7559 7.763731,7.1691 0,4.4501 -0.920869,6.19 -7.39074,13.9644 l -5.149279,6.1875 6.67001,-0.6229 C 23.502303,1871.1217 24,1871.2217 24,1873.0376 c 0,1.8045 -0.724187,1.9624 -9,1.9624 -6.7315178,0 -9,-0.3286 -9,-1.3038 z m 26.723716,0.054 c -6.064981,-4.571 -6.082799,-20.2758 -0.03059,-26.9634 2.063117,-2.2797 7.627921,-2.3227 9.874358,-0.076 5.893207,5.8932 5.755919,19.8549 -0.26061,26.5031 -1.871899,2.0684 -7.157952,2.3644 -9.583158,0.5366 z m 9.226952,-5.5118 c 2.210223,-7.9585 0.620452,-19.327 -2.971505,-21.2494 -4.556302,-2.4384 -7.974061,7.142 -6.464199,18.12 1.290127,9.3803 7.159126,11.3269 9.435704,3.1294 z M 15,1765.025 l 0,-12.975 -3,0.6 c -4.7022443,0.9404 -3.511697,-1.0715 1.75,-2.9574 2.6125,-0.9364 4.975,-1.6993 5.25,-1.6955 0.275,0 0.5,6.7564 0.5,15.0058 0,14.8878 -0.01664,14.9987 -2.25,14.9979 C 15.032316,1778 15,1777.8136 15,1765.025 z m 17.5,11.4462 c 2.2,-0.7926 4.096277,-1.4479 4.213949,-1.4561 0.853177,-0.06 5.286051,-7.8443 5.286051,-9.2824 0,-1.5233 -0.326724,-1.6282 -2.105297,-0.6763 -2.919872,1.5626 -8.525592,0.3087 -10.365961,-2.3188 -2.387069,-3.408 -1.976806,-9.968 0.785709,-12.5633 3.380162,-3.1755 10.010465,-3.0058 13.107058,0.3355 4.183016,4.5136 4.085357,14.6289 -0.197075,20.4128 -2.885153,3.8967 -8.149677,7.0826 -11.622317,7.0335 -3.075459,-0.043 -3.067743,-0.056 0.897883,-1.4849 z m 8.926714,-13.794 c 1.463954,-1.0704 1.677341,-2.1018 1.118814,-5.4077 -0.802024,-4.7472 -2.196129,-6.8161 -5.190156,-7.7025 C 34.315747,1748.6671 32,1751.3835 32,1755.8489 c 0,6.7717 4.774474,10.2301 9.426714,6.8283 z M 15,1668.025 l 0,-12.975 -3,0.6 c -4.7022443,0.9404 -3.511697,-1.0715 1.75,-2.9574 2.6125,-0.9364 4.975,-1.6993 5.25,-1.6955 0.275,0 0.5,6.7564 0.5,15.0058 0,14.8878 -0.01664,14.9987 -2.25,14.9979 C 15.032316,1681 15,1680.8136 15,1668.025 z m 15.454545,10.5205 c -3.263279,-3.2633 -3.094419,-5.7471 0.683213,-10.0496 l 3.137757,-3.5737 -2.022822,-2.2111 c -3.44186,-3.7622 -3.685752,-6.3689 -0.860251,-9.1945 3.431312,-3.4313 10.738147,-3.5959 13.050854,-0.2941 2.123057,3.0311 1.975342,4.1265 -1.03961,7.7096 l -2.596315,3.0855 3.096315,2.8924 c 6.299786,5.8849 2.570693,14.09 -6.403686,14.09 -3.540965,0 -5.152265,-0.5614 -7.045455,-2.4545 z m 10.322949,-0.1022 c 3.360734,-2.354 2.934571,-6.6663 -0.984688,-9.9642 l -3.207194,-2.6987 -2.292806,2.6656 c -2.966641,3.4489 -2.998267,7.9465 -0.0703,9.9973 1.222379,0.8562 2.697251,1.5567 3.277494,1.5567 0.580243,0 2.055115,-0.7005 3.277494,-1.5567 z M 42,1656.5117 c 0,-5.2423 -7.351268,-5.9446 -8.636191,-0.8251 -0.536676,2.1383 -0.111828,3.1334 2.179069,5.1039 l 2.845719,2.4478 1.805702,-2.2299 C 41.187434,1659.7819 42,1657.7584 42,1656.5117 z m -9,-72.714 c 0,-0.716 2.25,-6.611 5,-13.1001 2.75,-6.4891 5,-12.0007 5,-12.248 0,-0.2473 -3.15,-0.4496 -7,-0.4496 -6.333333,0 -7,-0.1905 -7,-2 0,-1.8536 0.666667,-2 9.106989,-2 8.285129,0 9.04102,0.1579 8.375996,1.75 -0.402045,0.9625 -2.875105,7.5541 -5.495687,14.648 -2.620583,7.0938 -5.489781,13.3037 -6.375997,13.7997 C 33.492974,1584.8235 33,1584.7011 33,1583.7977 z m -18,-12.7727 0,-12.975 -3,0.6 c -4.7022443,0.9404 -3.511697,-1.0715 1.75,-2.9574 2.6125,-0.9364 4.975,-1.6993 5.25,-1.6955 0.275,0 0.5,6.7564 0.5,15.0058 0,14.8878 -0.01664,14.9987 -2.25,14.9979 C 15.032316,1584 15,1583.8136 15,1571.025 z m 0,-97 0,-12.975 -3,0.6 c -4.7022443,0.9404 -3.511697,-1.0715 1.75,-2.9574 2.6125,-0.9364 4.975,-1.6993 5.25,-1.6955 0.275,0 0.5,6.7564 0.5,15.0058 0,14.8878 -0.01664,14.9987 -2.25,14.9979 C 15.032316,1487 15,1486.8136 15,1474.025 z m 16.578491,10.4652 c -4.183016,-4.5136 -4.085357,-14.6289 0.197075,-20.4128 2.885153,-3.8967 8.149677,-7.0826 11.622317,-7.0335 3.075459,0.043 3.067743,0.056 -0.897883,1.4849 -2.2,0.7926 -4.096277,1.4479 -4.213949,1.4561 -0.853177,0.06 -5.286051,7.8443 -5.286051,9.2824 0,1.5233 0.326724,1.6282 2.105297,0.6763 2.919872,-1.5626 8.525592,-0.3087 10.365961,2.3188 2.387069,3.408 1.976806,9.968 -0.785709,12.5633 -3.380162,3.1755 -10.010465,3.0058 -13.107058,-0.3355 z m 9.85008,-0.062 C 44.928353,1480.9288 42.302809,1471 37.877555,1471 c -3.009758,0 -5.878275,1.8491 -5.871978,3.7852 0.01342,4.1264 2.225132,9.3681 4.306684,10.2067 3.064755,1.2346 3.349711,1.2033 5.11631,-0.5633 z M 15,1377.025 l 0,-12.975 -3,0.6 c -4.7022443,0.9404 -3.511697,-1.0715 1.75,-2.9574 2.6125,-0.9364 4.975,-1.6993 5.25,-1.6955 0.275,0 0.5,6.7564 0.5,15.0058 0,14.8878 -0.01664,14.9987 -2.25,14.9979 C 15.032316,1390 15,1389.8136 15,1377.025 z m 15.454309,11.6896 c -1.156224,-0.6865 -1.885243,-1.9755 -1.676676,-2.9646 0.483787,-2.2943 1.451909,-2.2133 2.990294,0.25 0.793333,1.2703 2.332028,2 4.217494,2 4.07508,0 6.483008,-3.726 5.665112,-8.7661 -0.794054,-4.8932 -3.088369,-6.5386 -8.043939,-5.769 l -3.893407,0.6046 0.634714,-5.2848 c 0.349093,-2.9066 0.638626,-6.0722 0.643407,-7.0347 0.0074,-1.4992 1.012003,-1.75 7.008692,-1.75 5.555556,0 7,0.3095 7,1.5 0,1.1631 -1.319444,1.5 -5.875,1.5 -5.78,0 -5.885106,0.051 -6.5,3.125 -1.020353,5.1018 -0.826685,5.6362 1.856524,5.1233 9.489887,-1.8141 15.204619,8.2175 8.929582,15.675 -2.141275,2.5447 -3.308346,3.0706 -6.75,3.0413 -2.288608,-0.02 -5.081667,-0.582 -6.206797,-1.25 z M 15,1280.025 l 0,-12.975 -3,0.6 c -4.7022443,0.9404 -3.511697,-1.0715 1.75,-2.9574 2.6125,-0.9364 4.975,-1.6993 5.25,-1.6955 0.275,0 0.5,6.7564 0.5,15.0058 0,14.8878 -0.01664,14.9987 -2.25,14.9979 C 15.032316,1293 15,1292.8136 15,1280.025 z m 25,9.5952 0,-3.3798 -5.978954,-0.4325 c -3.288425,-0.2379 -6.279583,-0.7331 -6.647017,-1.1005 -1.140102,-1.1401 12.940527,-21.6702 14.875971,-21.6897 1.551178,-0.016 1.75,1.1184 1.75,9.9823 0,9.3333 0.133333,10 2,10 2.594736,0 2.594736,2.0317 0,2.7103 -1.50286,0.393 -2,1.364 -2,3.9063 0,2.7167 -0.394085,3.3834 -2,3.3834 -1.6055,0 -2,-0.6667 -2,-3.3798 z M 40,1276 c 0,-3.85 -0.158978,-7 -0.353284,-7 -0.194306,0 -2.447893,3.15 -5.00797,7 l -4.654686,7 5.00797,0 5.00797,0 0,-7 z m -25,-91.975 0,-12.975 -3,0.6 c -4.7022443,0.9404 -3.511697,-1.0715 1.75,-2.9574 2.6125,-0.9364 4.975,-1.6993 5.25,-1.6955 0.275,0 0.5,6.7564 0.5,15.0058 0,14.8878 -0.01664,14.9987 -2.25,14.9979 C 15.032316,1197 15,1196.8136 15,1184.025 z m 15.105192,11.6017 c -0.626834,-0.7552 -0.86129,-2.0987 -0.521013,-2.9855 0.537905,-1.4017 0.841827,-1.3367 2.327681,0.4983 C 35.502601,1197.5739 43,1194.3619 43,1188.3892 43,1185.2772 39.665957,1182 36.5,1182 c -1.375,0 -2.5,-0.45 -2.5,-1 0,-0.55 1.099483,-1 2.443296,-1 4.856769,0 7.41917,-7.5821 3.492012,-10.3328 -2.573141,-1.8023 -5.646613,-1.0751 -7.124018,1.6854 -1.104309,2.0634 -1.138356,2.0658 -1.818798,0.126 -0.98151,-2.7981 1.590938,-4.4086 7.10252,-4.4468 7.65378,-0.053 10.662138,6.302 5.450443,11.5137 -1.35,1.35 -2.109853,2.4545 -1.688562,2.4545 0.421291,0 1.750837,0.9175 2.954546,2.039 3.163328,2.947 2.864414,7.439 -0.734516,11.0379 -2.44412,2.4441 -3.734886,2.9231 -7.877555,2.9231 -2.980791,0 -5.408494,-0.5471 -6.094176,-1.3733 z M 16,1087.025 l 0,-12.975 -3,0.6 c -4.7022443,0.9404 -3.511697,-1.0715 1.75,-2.9574 2.6125,-0.9364 4.975,-1.6993 5.25,-1.6955 0.275,0 0.5,6.7564 0.5,15.0058 0,14.8878 -0.01664,14.9987 -2.25,14.9979 C 16.032316,1100 16,1099.8136 16,1087.025 z m 13,11.6712 c 0,-0.7171 1.630869,-2.8546 3.624153,-4.75 C 38.968417,1087.9135 42,1083.0506 42,1078.9067 c 0,-6.4462 -6.12178,-8.5555 -10.227764,-3.5239 l -1.727764,2.1172 -0.02224,-2.5895 c -0.02596,-3.0236 3.207157,-4.9105 8.414033,-4.9105 4.77922,0 7.763731,2.7559 7.763731,7.1691 0,4.4501 -0.920869,6.19 -7.39074,13.9644 l -5.149279,6.1875 6.67001,-0.6229 C 46.502303,1096.1217 47,1096.2217 47,1098.0376 c 0,1.8045 -0.724187,1.9624 -9,1.9624 -6.731518,0 -9,-0.3286 -9,-1.3038 z M 15,990.025 l 0,-12.975 -3,0.6 c -4.7022443,0.94045 -3.511697,-1.07151 1.75,-2.9574 2.6125,-0.93637 4.975,-1.69935 5.25,-1.69551 0.275,0.004 0.5,6.75644 0.5,15.00577 0,14.88784 -0.01664,14.99874 -2.25,14.99794 C 15.032316,1003 15,1002.8136 15,990.025 z m 23,0 0,-12.975 -3,0.6 c -4.702244,0.94045 -3.511697,-1.07151 1.75,-2.9574 2.6125,-0.93637 4.975,-1.69935 5.25,-1.69551 0.275,0.004 0.5,6.75644 0.5,15.00577 0,14.88784 -0.01664,14.99874 -2.25,14.99794 C 38.032316,1003 38,1002.8136 38,990.025 z m -23,-97 0,-12.975 -3,0.6 c -4.7022443,0.94045 -3.511697,-1.07151 1.75,-2.9574 2.6125,-0.93637 4.975,-1.69935 5.25,-1.69551 0.275,0.004 0.5,6.75644 0.5,15.00577 0,14.88787 -0.01664,14.99878 -2.25,14.99796 C 15.032316,906.00001 15,905.81365 15,893.025 z m 17.723716,11.725 c -6.064981,-4.57102 -6.082799,-20.27579 -0.03059,-26.9634 2.063117,-2.27972 7.627921,-2.3227 9.874358,-0.0763 5.893207,5.89321 5.755919,19.85487 -0.26061,26.50306 -1.871899,2.06843 -7.157952,2.36441 -9.583158,0.5366 z m 9.226952,-5.51177 c 2.210223,-7.95849 0.620452,-19.32702 -2.971505,-21.24938 -4.556302,-2.43846 -7.974061,7.14194 -6.464199,18.11995 1.290127,9.38035 7.159126,11.32685 9.435704,3.12943 z M 9.7237164,807.75 c -6.0649818,-4.57102 -6.0827993,-20.27579 -0.030591,-26.9634 2.0631176,-2.27972 7.6279216,-2.3227 9.8743586,-0.0763 5.893207,5.89321 5.755919,19.85487 -0.26061,26.50306 -1.871899,2.06843 -7.157952,2.36441 -9.583158,0.5366 z m 9.2269516,-5.51177 c 2.210223,-7.95849 0.620452,-19.32702 -2.971505,-21.24938 -4.556302,-2.43846 -7.9740609,7.14194 -6.4641989,18.11995 1.2901269,9.38035 7.1591259,11.32685 9.4357039,3.12943 z M 32.5,807.47116 c 2.2,-0.79257 4.096277,-1.44782 4.213949,-1.4561 C 37.567126,805.95502 42,798.17083 42,796.73268 c 0,-1.52323 -0.326724,-1.62819 -2.105297,-0.67633 -2.919872,1.56267 -8.525592,0.30872 -10.365961,-2.31878 -2.387069,-3.40802 -1.976806,-9.96801 0.785709,-12.56326 3.380162,-3.17549 10.010465,-3.00578 13.107058,0.3355 4.183016,4.51355 4.085357,14.62893 -0.197075,20.4128 -2.885153,3.89669 -8.149677,7.08263 -11.622317,7.0335 -3.075459,-0.0435 -3.067743,-0.0563 0.897883,-1.48495 z m 8.926714,-13.79391 c 1.463954,-1.07047 1.677341,-2.10188 1.118814,-5.40777 -0.802024,-4.74714 -2.196129,-6.81606 -5.190156,-7.70245 C 34.315747,779.66715 32,782.38354 32,786.84892 c 0,6.77169 4.774474,10.23013 9.426714,6.82833 z M 9.7237164,710.75 c -6.0649818,-4.57102 -6.0827993,-20.27579 -0.030591,-26.9634 2.0631176,-2.27972 7.6279216,-2.3227 9.8743586,-0.0763 5.893207,5.89321 5.755919,19.85487 -0.26061,26.50306 -1.871899,2.06843 -7.157952,2.36441 -9.583158,0.5366 z m 9.2269516,-5.51177 c 2.210223,-7.95849 0.620452,-19.32702 -2.971505,-21.24938 -4.556302,-2.43846 -7.9740609,7.14194 -6.4641989,18.11995 1.2901269,9.38035 7.1591259,11.32685 9.4357039,3.12943 z m 11.503877,4.30722 c -3.263279,-3.26327 -3.094419,-5.74708 0.683213,-10.04957 l 3.137757,-3.5737 -2.022822,-2.21109 c -3.44186,-3.7622 -3.685752,-6.36894 -0.860251,-9.19444 3.431312,-3.43131 10.738147,-3.596 13.050854,-0.29414 2.123057,3.03108 1.975342,4.12652 -1.03961,7.70958 l -2.596315,3.08555 3.096315,2.89239 C 50.203472,703.79491 46.474379,712 37.5,712 c -3.540965,0 -5.152265,-0.56136 -7.045455,-2.45455 z m 10.322949,-0.10215 c 3.360734,-2.35395 2.934571,-6.66635 -0.984688,-9.96419 l -3.207194,-2.69867 -2.292806,2.66554 c -2.966641,3.44893 -2.998267,7.94649 -0.0703,9.99732 C 35.444885,710.29948 36.919757,711 37.5,711 c 0.580243,0 2.055115,-0.70052 3.277494,-1.5567 z M 42,687.51166 c 0,-5.2423 -7.351268,-5.9446 -8.636191,-0.82505 -0.536676,2.13828 -0.111828,3.13338 2.179069,5.10393 l 2.845719,2.44779 1.805702,-2.22995 C 41.187434,690.78191 42,688.75838 42,687.51166 z m -9,-72.71398 c 0,-0.71593 2.25,-6.61096 5,-13.10005 2.75,-6.4891 5,-12.00069 5,-12.24799 C 43,589.20234 39.85,589 36,589 c -6.333333,0 -7,-0.19048 -7,-2 0,-1.85359 0.666667,-2 9.106989,-2 8.285129,0 9.04102,0.15793 8.375996,1.75 -0.402045,0.9625 -2.875105,7.55408 -5.495687,14.64796 -2.620583,7.09388 -5.489781,13.30374 -6.375997,13.79969 C 33.492974,615.8235 33,615.70113 33,614.79768 z M 9.7237164,613.75 c -6.0649818,-4.57102 -6.0827993,-20.27579 -0.030591,-26.9634 2.0631176,-2.27972 7.6279216,-2.3227 9.8743586,-0.0763 5.893207,5.89321 5.755919,19.85487 -0.26061,26.50306 -1.871899,2.06843 -7.157952,2.36441 -9.583158,0.5366 z m 9.2269516,-5.51177 c 2.210223,-7.95849 0.620452,-19.32702 -2.971505,-21.24938 -4.556302,-2.43846 -7.9740609,7.14194 -6.4641989,18.11995 1.2901269,9.38035 7.1591259,11.32685 9.4357039,3.12943 z M 9.7237164,516.75 c -6.0649818,-4.57102 -6.0827993,-20.27579 -0.030591,-26.9634 2.0631176,-2.27972 7.6279216,-2.3227 9.8743586,-0.0763 5.893207,5.89321 5.755919,19.85487 -0.26061,26.50306 -1.871899,2.06843 -7.157952,2.36441 -9.583158,0.5366 z m 9.2269516,-5.51177 c 2.210223,-7.95849 0.620452,-19.32702 -2.971505,-21.24938 -4.556302,-2.43846 -7.9740609,7.14194 -6.4641989,18.11995 1.2901269,9.38035 7.1591259,11.32685 9.4357039,3.12943 z m 12.627823,4.25196 c -4.183016,-4.51355 -4.085357,-14.62893 0.197075,-20.4128 2.885153,-3.89669 8.149677,-7.08263 11.622317,-7.0335 3.075459,0.0435 3.067743,0.0563 -0.897883,1.48495 -2.2,0.79257 -4.096277,1.44782 -4.213949,1.4561 C 37.432874,491.04498 33,498.82917 33,500.26732 c 0,1.52323 0.326724,1.62819 2.105297,0.67633 2.919872,-1.56267 8.525592,-0.30872 10.365961,2.31878 2.387069,3.40802 1.976806,9.96801 -0.785709,12.56326 -3.380162,3.17549 -10.010465,3.00578 -13.107058,-0.3355 z m 9.85008,-0.0616 C 44.928353,511.92879 42.302809,502 37.877555,502 c -3.009758,0 -5.878275,1.8491 -5.871978,3.78518 0.01342,4.12643 2.225132,9.36811 4.306684,10.20669 3.064755,1.23467 3.349711,1.2033 5.11631,-0.5633 z M 9.7237164,420.75 c -6.0649818,-4.57102 -6.0827993,-20.27579 -0.030591,-26.9634 2.0631176,-2.27972 7.6279216,-2.3227 9.8743586,-0.0763 5.893207,5.89321 5.755919,19.85487 -0.26061,26.50306 -1.871899,2.06843 -7.157952,2.36441 -9.583158,0.5366 z m 9.2269516,-5.51177 c 2.210223,-7.95849 0.620452,-19.32702 -2.971505,-21.24938 -4.556302,-2.43846 -7.9740609,7.14194 -6.4641989,18.11995 1.2901269,9.38035 7.1591259,11.32685 9.4357039,3.12943 z m 11.503641,5.47633 c -1.156224,-0.68647 -1.885243,-1.97546 -1.676676,-2.96456 0.483787,-2.29428 1.451909,-2.21335 2.990294,0.25 0.793333,1.27033 2.332028,2 4.217494,2 4.07508,0 6.483008,-3.72598 5.665112,-8.76609 -0.794054,-4.89318 -3.088369,-6.53865 -8.043939,-5.76905 l -3.893407,0.60464 0.634714,-5.28475 C 30.696994,397.87814 30.986527,394.7125 30.991308,393.75 30.998754,392.25083 32.003311,392 38,392 c 5.555556,0 7,0.30952 7,1.5 0,1.16312 -1.319444,1.5 -5.875,1.5 -5.78,0 -5.885106,0.0505 -6.5,3.125 -1.020353,5.10176 -0.826685,5.63621 1.856524,5.12328 9.489887,-1.8141 15.204619,8.21754 8.929582,15.67499 -2.141275,2.54477 -3.308346,3.0706 -6.75,3.04129 -2.288608,-0.0195 -5.081667,-0.58198 -6.206797,-1.25 z M 9.7237164,323.75 c -6.0649818,-4.57102 -6.0827993,-20.27579 -0.030591,-26.9634 2.0631176,-2.27972 7.6279216,-2.3227 9.8743586,-0.0763 5.893207,5.89321 5.755919,19.85487 -0.26061,26.50306 -1.871899,2.06843 -7.157952,2.36441 -9.583158,0.5366 z m 9.2269516,-5.51177 c 2.210223,-7.95849 0.620452,-19.32702 -2.971505,-21.24938 -4.556302,-2.43846 -7.9740609,7.14194 -6.4641989,18.11995 1.2901269,9.38035 7.1591259,11.32685 9.4357039,3.12943 z M 40,321.62019 l 0,-3.37981 -5.978954,-0.43248 c -3.288425,-0.23786 -6.279583,-0.7331 -6.647017,-1.10054 C 26.233927,315.56726 40.314556,295.0372 42.25,295.01766 43.801178,295.00201 44,296.13613 44,305 c 0,9.33333 0.133333,10 2,10 2.594736,0 2.594736,2.03171 0,2.71025 -1.50286,0.39301 -2,1.36402 -2,3.90638 0,2.7167 -0.394085,3.38337 -2,3.38337 -1.6055,0 -2,-0.66667 -2,-3.37981 z M 40,308 c 0,-3.85 -0.158978,-7 -0.353284,-7 -0.194306,0 -2.447893,3.15 -5.00797,7 l -4.654686,7 5.00797,0 5.00797,0 0,-7 z M 9.7237164,226.75 c -6.0649818,-4.57102 -6.0827993,-20.27579 -0.030591,-26.9634 2.0631176,-2.27972 7.6279216,-2.3227 9.8743586,-0.0763 5.893207,5.89321 5.755919,19.85487 -0.26061,26.50306 -1.871899,2.06843 -7.157952,2.36441 -9.583158,0.5366 z m 9.2269516,-5.51177 c 2.210223,-7.95849 0.620452,-19.32702 -2.971505,-21.24938 -4.556302,-2.43846 -7.9740609,7.14194 -6.4641989,18.11995 1.2901269,9.38035 7.1591259,11.32685 9.4357039,3.12943 z m 11.154524,5.38852 c -0.626834,-0.75529 -0.86129,-2.09877 -0.521013,-2.98552 0.537905,-1.40176 0.841827,-1.3367 2.327681,0.49825 C 35.502601,228.57386 43,225.3619 43,219.38922 43,216.27722 39.665957,213 36.5,213 c -1.375,0 -2.5,-0.45 -2.5,-1 0,-0.55 1.099483,-1 2.443296,-1 4.856769,0 7.41917,-7.58207 3.492012,-10.33276 -2.573141,-1.8023 -5.646613,-1.07519 -7.124018,1.68537 -1.104309,2.06342 -1.138356,2.06578 -1.818798,0.12599 -0.98151,-2.79807 1.590938,-4.40865 7.10252,-4.4468 7.65378,-0.053 10.662138,6.30196 5.450443,11.51365 -1.35,1.35 -2.109853,2.45455 -1.688562,2.45455 0.421291,0 1.750837,0.91753 2.954546,2.03896 3.163328,2.94708 2.864414,7.43903 -0.734516,11.03796 C 41.632803,227.52104 40.342037,228 36.199368,228 c -2.980791,0 -5.408494,-0.54705 -6.094176,-1.37325 z M 10.723716,129.75 c -6.0649814,-4.57102 -6.0827989,-20.27579 -0.03059,-26.9634 2.063117,-2.27972 7.627921,-2.3227 9.874358,-0.0763 5.893207,5.89321 5.755919,19.85487 -0.26061,26.50306 -1.871899,2.06843 -7.157952,2.36441 -9.583158,0.5366 z m 9.226952,-5.51177 c 2.210223,-7.95849 0.620452,-19.32702 -2.971505,-21.24938 -4.556302,-2.43846 -7.9740609,7.14194 -6.464199,18.11995 1.290127,9.38035 7.159126,11.32685 9.435704,3.12943 z M 29,129.69617 c 0,-0.71711 1.630869,-2.85461 3.624153,-4.75 C 38.968417,118.91348 42,114.05061 42,109.90667 c 0,-6.44621 -6.12178,-8.55542 -10.227764,-3.52389 L 30.044472,108.5 30.022236,105.91052 C 29.996272,102.88688 33.229393,101 38.436269,101 c 4.77922,0 7.763731,2.75592 7.763731,7.16907 0,4.45013 -0.920869,6.19007 -7.39074,13.9644 l -5.149279,6.18749 6.67001,-0.62285 C 46.502303,127.12173 47,127.22168 47,129.03763 47,130.8421 46.275813,131 38,131 c -6.731518,0 -9,-0.32864 -9,-1.30383 z M 9.7237164,32.75 C 3.6587346,28.178983 3.6409171,12.474214 9.6931258,5.7865984 11.756243,3.5068794 17.321047,3.463904 19.567484,5.7103415 25.460691,11.603548 25.323403,25.565212 19.306874,32.213402 17.434975,34.281827 12.148922,34.577814 9.7237164,32.75 z M 18.950668,27.238233 C 21.160891,19.279744 19.57112,7.9112052 15.979163,5.9888485 11.422861,3.5503897 8.0051021,13.130794 9.5149641,24.108802 10.805091,33.489147 16.67409,35.435651 18.950668,27.238233 z M 38,21.025 38,8.05 35,8.65 C 30.297756,9.5904489 31.488303,7.5784908 36.75,5.6925983 39.3625,4.7562286 41.725,3.9932513 42,3.9970932 c 0.275,0.00384 0.5,6.7564378 0.5,15.0057678 0,14.88787 -0.01664,14.998777 -2.25,14.997961 C 38.032316,34.000012 38,33.813645 38,21.025 z"
     id="path2989"
     style="fill:#000000" />
</svg>
